HIERARCHY
ROOT Hips
{
 OFFSET 0.000000 0.000000 0.000000
 CHANNELS 6 Xposition Yposition Zposition Yrotation Xrotation Zrotation
 JOINT Chest
 {
  OFFSET 0.000000 9.812683 -0.003552
  CHANNELS 3 Yrotation Xrotation Zrotation
  JOINT Chest2
  {
   OFFSET 0.000000 9.777810 0.007248
   CHANNELS 3 Yrotation Xrotation Zrotation
   JOINT Chest3
   {
    OFFSET 0.000000 9.736392 0.000000
    CHANNELS 3 Yrotation Xrotation Zrotation
    JOINT Chest4
    {
     OFFSET 0.000000 9.726454 0.000000
     CHANNELS 3 Yrotation Xrotation Zrotation
     JOINT Neck
     {
      OFFSET 0.000000 14.679095 0.000000
      CHANNELS 3 Yrotation Xrotation Zrotation
      JOINT Head
      {
       OFFSET 0.000000 9.104124 0.015333
       CHANNELS 3 Yrotation Xrotation Zrotation
       End Site
       {
        OFFSET 0.000000 17.313862 0.008094
       }
      }
     }
     JOINT RightCollar
     {
      OFFSET -2.991841 9.728033 0.000000
      CHANNELS 3 Yrotation Xrotation Zrotation
      JOINT RightShoulder
      {
       OFFSET -14.105608 0.000000 0.000000
       CHANNELS 3 Yrotation Xrotation Zrotation
       JOINT RightElbow
       {
        OFFSET -30.920614 0.000000 0.000000
        CHANNELS 3 Yrotation Xrotation Zrotation
        JOINT RightWrist
        {
         OFFSET -25.011638 0.000000 0.000000
         CHANNELS 3 Yrotation Xrotation Zrotation
         End Site
         {
          OFFSET -18.498852 0.000000 0.000000
         }
        }
       }
      }
     }
     JOINT LeftCollar
     {
      OFFSET 2.991841 9.728033 0.000000
      CHANNELS 3 Yrotation Xrotation Zrotation
      JOINT LeftShoulder
      {
       OFFSET 14.105608 0.000000 0.000000
       CHANNELS 3 Yrotation Xrotation Zrotation
       JOINT LeftElbow
       {
        OFFSET 30.920614 0.000000 0.000000
        CHANNELS 3 Yrotation Xrotation Zrotation
        JOINT LeftWrist
        {
         OFFSET 25.011638 0.000000 0.000000
         CHANNELS 3 Yrotation Xrotation Zrotation
         End Site
         {
          OFFSET 18.498852 0.000000 0.000000
         }
        }
       }
      }
     }
    }
   }
  }
 }
 JOINT RightHip
 {
  OFFSET -8.005612 0.017580 0.001776
  CHANNELS 3 Yrotation Xrotation Zrotation
  JOINT RightKnee
  {
   OFFSET 0.000000 -41.413990 -0.001697
   CHANNELS 3 Yrotation Xrotation Zrotation
   JOINT RightAnkle
   {
    OFFSET 0.000000 -40.303361 -0.002870
    CHANNELS 3 Yrotation Xrotation Zrotation
    JOINT RightToe
    {
     OFFSET 0.000000 -7.855341 17.873357
     CHANNELS 3 Yrotation Xrotation Zrotation
     End Site
     {
      OFFSET 0.000000 -1.536332 6.874071
     }
    }
   }
  }
 }
 JOINT LeftHip
 {
  OFFSET 8.005612 0.017580 0.001776
  CHANNELS 3 Yrotation Xrotation Zrotation
  JOINT LeftKnee
  {
   OFFSET 0.000000 -41.413990 -0.001697
   CHANNELS 3 Yrotation Xrotation Zrotation
   JOINT LeftAnkle
   {
    OFFSET 0.000000 -40.303361 -0.002870
    CHANNELS 3 Yrotation Xrotation Zrotation
    JOINT LeftToe
    {
     OFFSET 0.000000 -7.855341 17.873357
     CHANNELS 3 Yrotation Xrotation Zrotation
     End Site
     {
      OFFSET 0.000000 -1.536332 6.874071
     }
    }
   }
  }
 }
}
MOTION
Frames: 11
Frame Time: 0.008333
0.000000 89.373800 0.000000 0.000000 -5.767889 0.000000 0.000000 11.653876 0.000000 0.000000 -5.885988 0.000000 0.000000 -0.000000 0.000000 0.000000 -0.000000 0.000000 0.000000 12.528808 0.000000 0.000000 0.711711 0.000000 0.000000 -0.000000 0.000000 0.000000 -0.000000 0.000000 2.309063 -0.000000 0.000000 -2.309063 -0.000000 -0.000000 0.000000 -0.000000 0.000000 0.000000 0.000000 0.000000 -2.309063 0.000000 0.000000 2.309063 -0.000000 0.000000 0.000000 8.520374 0.000000 0.000000 1.905768 0.000000 -0.000000 -4.658254 0.000000 0.000000 -0.000000 0.000000 0.000000 8.520374 0.000000 0.000000 1.905768 0.000000 -0.000000 -4.658254 0.000000 0.000000 -0.000000 0.000000
-27.578925 16.952347 78.288983 -141.754949 -32.443314 2.488227 7.595199 25.107890 5.716781 1.134160 4.234491 0.635623 1.828465 6.724507 1.051818 6.238540 20.580690 4.074431 24.278053 17.493988 -6.670228 32.251553 -3.796040 -14.338280 1.950234 -9.686416 -5.426259 8.897615 -37.586204 52.160268 54.512950 -55.940644 70.194832 -14.749884 1.955079 56.509988 -6.036726 -3.642595 7.206943 17.036570 -7.061866 -77.580350 -92.534983 -53.223719 -62.007557 12.646496 2.469507 -54.235611 72.926662 -69.197563 -69.258802 -158.925933 9.313834 -167.014690 -47.445222 -26.747711 45.269921 0.073468 1.843956 0.199845 -54.090686 -81.310975 53.989707 -167.504897 10.582576 -174.204470 7.442015 -51.364776 -0.694351 0.011611 -1.145395 -0.132429
-27.587535 16.963924 78.278164 -141.752867 -32.393799 2.458992 7.565444 25.140764 5.763421 1.127724 4.237151 0.642002 1.818407 6.728539 1.061751 6.209310 20.588149 4.101424 24.236636 17.559949 -6.695700 32.193158 -3.718607 -14.352407 1.951090 -9.664277 -5.445248 8.738238 -37.459565 52.205428 57.029203 -56.164591 69.651594 -14.858383 2.629473 57.321307 -5.846297 -3.707359 7.096914 16.555036 -7.356505 -77.665385 -91.668374 -52.970315 -61.932731 12.604281 2.252596 -54.094419 72.803413 -69.237904 -69.137741 -158.934364 9.308662 -167.029079 -47.465633 -26.783597 45.316636 0.033626 1.842161 0.191224 -54.171127 -81.265900 54.073947 -167.503516 10.574860 -174.219828 7.434801 -51.408170 -0.669062 0.011712 -1.145973 -0.120139
-27.598533 16.976561 78.267568 -141.737005 -32.338028 2.432660 7.532587 25.141714 5.786852 1.122407 4.235805 0.645978 1.810123 6.726591 1.067918 6.187042 20.587434 4.118918 24.201021 17.622194 -6.701500 32.136689 -3.647949 -14.343347 1.939302 -9.637814 -5.422776 8.601477 -37.333318 52.276846 59.308411 -56.344577 69.162985 -14.963590 3.238769 58.044552 -5.675998 -3.732917 7.034796 16.300663 -7.669465 -77.770596 -90.034245 -52.793770 -62.511254 12.761645 2.344684 -54.470242 72.683742 -69.286474 -69.032777 -158.924009 9.301591 -167.045257 -47.482158 -26.812998 45.354144 0.005568 1.829828 0.189782 -54.350195 -81.228508 54.249472 -167.480991 10.570740 -174.232748 7.419489 -51.435674 -0.632312 0.016187 -1.149326 -0.107494
-27.611196 16.989729 78.256870 -141.708501 -32.284872 2.407871 7.482572 25.120841 5.780666 1.116130 4.230831 0.646853 1.800287 6.719311 1.069148 6.160992 20.581605 4.122148 24.182270 17.681823 -6.686057 32.097982 -3.580060 -14.312353 1.948807 -9.605683 -5.349944 8.484730 -37.198837 52.346456 61.264743 -56.490355 68.823873 -15.057080 3.797608 58.698370 -5.519408 -3.720147 7.006743 16.171036 -7.965416 -77.882214 -88.044614 -52.645188 -63.355143 12.942085 2.716250 -55.124085 72.557018 -69.327736 -68.933398 -158.901674 9.292902 -167.058968 -47.491136 -26.837687 45.384065 -0.015605 1.811646 0.191624 -54.559215 -81.199021 54.445791 -167.446176 10.568058 -174.245511 7.408653 -51.448821 -0.593303 0.018490 -1.157221 -0.095363
-27.624506 17.002687 78.245741 -141.671677 -32.241523 2.383359 7.423633 25.095603 5.764867 1.109311 4.226111 0.646978 1.789564 6.712440 1.069167 6.131651 20.577226 4.121237 24.171849 17.738939 -6.662765 32.069135 -3.514596 -14.274064 1.976032 -9.572356 -5.260491 8.394029 -37.058209 52.400152 62.901408 -56.609335 68.629320 -15.136483 4.295066 59.298807 -5.406565 -3.710336 6.972791 16.067068 -8.196533 -77.989579 -86.108883 -52.441034 -64.046239 13.089966 3.210674 -55.825360 72.424585 -69.346604 -68.835791 -158.890793 9.284555 -167.069382 -47.499398 -26.859598 45.406381 -0.031830 1.790983 0.194925 -54.723020 -81.178947 54.590912 -167.399050 10.562867 -174.256400 7.420383 -51.451342 -0.556081 0.013190 -1.171203 -0.085268
-27.638332 17.014158 78.235532 -141.630458 -32.208014 2.367291 7.366639 25.073643 5.754239 1.102954 4.223652 0.648524 1.779573 6.708909 1.071446 6.103657 20.576436 4.126593 24.156035 17.794866 -6.644326 32.034155 -3.451156 -14.240526 1.998103 -9.532723 -5.194541 8.323371 -36.930016 52.435347 64.200471 -56.714398 68.585768 -15.205509 4.723690 59.852263 -5.353610 -3.704668 6.931952 15.952358 -8.341524 -78.102173 -84.456576 -52.145699 -64.362770 13.182699 3.638241 -56.439140 72.305212 -69.325191 -68.752572 -158.908567 9.281119 -167.076965 -47.520446 -26.881137 45.423400 -0.040206 1.778534 0.200574 -54.799421 -81.175569 54.648640 -167.348530 10.556430 -174.263750 7.438801 -51.446990 -0.513929 0.003316 -1.188105 -0.076279
-27.652209 17.022826 78.226683 -141.586629 -32.184668 2.361343 7.316538 25.057341 5.757270 1.097061 4.223276 0.652220 1.770345 6.708435 1.077147 6.077608 20.578397 4.141939 24.129439 17.848942 -6.636870 31.987290 -3.390877 -14.218045 2.001574 -9.483438 -5.168357 8.257086 -36.833068 52.444384 65.129199 -56.821964 68.730417 -15.257586 5.094082 60.363234 -5.345692 -3.673669 6.890773 15.778638 -8.406427 -78.215709 -83.166453 -51.802442 -64.249564 13.196007 3.889097 -56.823841 72.201314 -69.270237 -68.680284 -158.943308 9.281757 -167.080331 -47.554088 -26.901013 45.435981 -0.040144 1.779505 0.208158 -54.817766 -81.183939 54.651268 -167.315479 10.551366 -174.271294 7.433997 -51.437496 -0.467863 -0.007925 -1.204877 -0.066448
-27.664152 17.027247 78.217325 -141.540690 -32.174115 2.350639 7.276339 25.049729 5.786304 1.090700 4.223518 0.657176 1.760402 6.708871 1.084834 6.049563 20.581284 4.163006 24.098037 17.898089 -6.639547 31.937404 -3.336254 -14.207606 1.992374 -9.430059 -5.172509 8.194985 -36.755930 52.419433 65.764691 -56.940371 69.020466 -15.301671 5.399715 60.814992 -5.362165 -3.611422 6.842957 15.506398 -8.396622 -78.292936 -82.246325 -51.468538 -63.725560 13.148859 3.911880 -56.869172 72.081137 -69.226397 -68.584377 -158.967167 9.277169 -167.079087 -47.589629 -26.919570 45.444016 -0.038077 1.782993 0.213677 -54.857183 -81.182036 54.680352 -167.308004 10.546390 -174.283768 7.401862 -51.428381 -0.427119 -0.021387 -1.218296 -0.056010
-27.673573 17.024982 78.207705 -141.496938 -32.170944 2.335928 7.240577 25.051541 5.830840 1.083340 4.223557 0.661804 1.748866 6.709039 1.091970 6.016604 20.584752 4.181978 24.070067 17.937581 -6.650516 31.896485 -3.291463 -14.209744 1.986404 -9.384327 -5.189501 8.154469 -36.671286 52.359103 66.228675 -57.063375 69.337255 -15.340766 5.653332 61.196785 -5.388587 -3.536213 6.785839 15.168861 -8.320758 -78.305606 -81.624095 -51.158558 -62.891472 13.081306 3.674542 -56.566244 71.935487 -69.225057 -68.457752 -158.961621 9.264662 -167.077235 -47.631417 -26.944992 45.451073 -0.037101 1.786378 0.214352 -54.949268 -81.165446 54.772218 -167.311630 10.541471 -174.302318 7.359022 -51.428930 -0.394458 -0.036260 -1.220860 -0.045974
-27.678087 17.013103 78.197027 -141.429556 -32.166620 2.289308 7.188224 25.055620 5.893391 1.075410 4.223143 0.664845 1.736384 6.708579 1.096568 5.980239 20.588673 4.192943 24.050069 17.961479 -6.666047 31.870396 -3.263536 -14.221543 1.987266 -9.349858 -5.207796 8.136596 -36.577761 52.285496 66.606315 -57.171615 69.582555 -15.367378 5.870905 61.512912 -5.417431 -3.452353 6.732871 14.836196 -8.199294 -78.275738 -81.186528 -50.849538 -61.890340 13.012423 3.167252 -55.952587 71.743056 -69.287928 -68.305960 -158.924052 9.246593 -167.082410 -47.652860 -26.962255 45.452573 -0.043733 1.760026 0.206389 -55.212224 -81.123433 55.021689 -167.308252 10.539857 -174.324588 7.329530 -51.469669 -0.372873 -0.059903 -1.179832 -0.041287
